<svg height="512" viewBox="0 0 64 64" width="512" xmlns="http://www.w3.org/2000/svg"><g id="network-human-man-woman-team"><path d="m41 9v18l-.08.19h-17.84l-.08-.19v-18a5.857 5.857 0 0 1 .81-3 5.985 5.985 0 0 1 5.19-3h6a5.985 5.985 0 0 1 5.19 3 5.857 5.857 0 0 1 .81 3z" fill="#57565c"/><path d="m41 9v18l-.08.19h-3l.08-.19v-18a5.857 5.857 0 0 0 -.81-3 5.985 5.985 0 0 0 -5.19-3h3a5.985 5.985 0 0 1 5.19 3 5.857 5.857 0 0 1 .81 3z" fill="#3e3d42"/><path d="m45 29v6h-26v-6l9-4h8z" fill="#ff7956"/><path d="m45 29v6h-4v-6l-6.23-2.77 1.23-1.23z" fill="#ff5023"/><path d="m38 10v6a6 6 0 1 1 -12 0v-6l9-2z" fill="#ffdaaa"/><path d="m38 10v6a5.994 5.994 0 0 1 -6 6 5.715 5.715 0 0 1 -1.5-.2 4.8 4.8 0 0 0 .76-.24 6.009 6.009 0 0 0 3.74-5.56v-6l-2.25-1.5 2.25-.5z" fill="#ffb655"/><path d="m34.26 21.56.74 4.44-3 3-3-3 .74-4.44a6.024 6.024 0 0 0 4.52 0z" fill="#ffdaaa"/><path d="m35 21.19v2a5.961 5.961 0 0 1 -6 0v-2a5.961 5.961 0 0 0 6 0z" fill="#ffb655"/><path d="m61 55v6h-26v-6l9-4h8z" fill="#46f8ff"/><path d="m61 55v6h-4v-6l-6.23-2.77 1.23-1.23z" fill="#00d7df"/><path d="m50.26 47.56.74 4.44-3 3-3-3 .74-4.44a6.024 6.024 0 0 0 4.52 0z" fill="#ffdaaa"/><path d="m29 55v6h-26v-6l9-4h8z" fill="#57a4ff"/><path d="m29 55v6h-4v-6l-9-4h4z" fill="#006df0"/><path d="m18.26 47.56.74 4.44-3 3-3-3 .74-4.44a6.024 6.024 0 0 0 4.52 0z" fill="#ffdaaa"/><path d="m25 28v4a5.985 5.985 0 0 1 -3 5.19v-1.19l-8-2-4 2v2h-1a2.006 2.006 0 0 1 -2-2v-2a6 6 0 0 1 6-6z" fill="#ffde55"/><path d="m25 28v4a5.985 5.985 0 0 1 -3 5.19v-1.19l-1.27-.32a5.9 5.9 0 0 0 1.27-3.68v-4z" fill="#ebbf00"/><path d="m19 47.19v2a5.961 5.961 0 0 1 -6 0v-2a5.961 5.961 0 0 0 6 0z" fill="#ffb655"/><path d="m22 36v6a5.985 5.985 0 0 1 -3 5.19 5.961 5.961 0 0 1 -6 0 5.985 5.985 0 0 1 -3-5.19v-6l4-2z" fill="#ffdaaa"/><path d="m22 36v6a5.985 5.985 0 0 1 -3 5.19 5.857 5.857 0 0 1 -3 .81 6.531 6.531 0 0 1 -1-.08 5.79 5.79 0 0 0 2-.73 5.985 5.985 0 0 0 3-5.19v-6l-6.67-1.67.67-.33z" fill="#ffb655"/><path d="m57 28v4a5.985 5.985 0 0 1 -3 5.19v-1.19l-8-2-4 2v2h-1a2.006 2.006 0 0 1 -2-2v-2a6 6 0 0 1 6-6z" fill="#898890"/><path d="m57 28v4a5.985 5.985 0 0 1 -3 5.19v-1.19l-1.27-.32a5.9 5.9 0 0 0 1.27-3.68v-4z" fill="#57565c"/><path d="m51 47.19v2a5.961 5.961 0 0 1 -6 0v-2a5.961 5.961 0 0 0 6 0z" fill="#ffb655"/><path d="m54 36v6a5.985 5.985 0 0 1 -3 5.19 5.961 5.961 0 0 1 -6 0 5.985 5.985 0 0 1 -3-5.19v-6l4-2z" fill="#ffdaaa"/><path d="m54 36v6a5.985 5.985 0 0 1 -3 5.19 5.857 5.857 0 0 1 -3 .81 6.531 6.531 0 0 1 -1-.08 5.79 5.79 0 0 0 2-.73 5.985 5.985 0 0 0 3-5.19v-6l-6.67-1.67.67-.33z" fill="#ffb655"/><path d="m33 13h2v2h-2z"/><path d="m29 13h2v2h-2z"/><path d="m17 39h2v2h-2z"/><path d="m13 39h2v2h-2z"/><path d="m49 39h2v2h-2z"/><path d="m45 39h2v2h-2z"/><path d="m61.41 54.09-9-4a.949.949 0 0 0 -.72-.03l-.32-1.93a7 7 0 0 0 3.63-6.13v-4.28a6.981 6.981 0 0 0 3-5.72v-4a1 1 0 0 0 -1-1h-12a7.1 7.1 0 0 0 -1.61.19l-1.39-.61v-17.58a7.008 7.008 0 0 0 -7-7h-6a7.008 7.008 0 0 0 -7 7v17.57l-.96.43h-8.04a7.008 7.008 0 0 0 -7 7v2a3.009 3.009 0 0 0 3 3v3a7 7 0 0 0 3.63 6.13l-.32 1.93a.949.949 0 0 0 -.72.03l-9 4a.987.987 0 0 0 -.59.91v6a1 1 0 0 0 1 1h26a1 1 0 0 0 1-1v-6a.987.987 0 0 0 -.59-.91l-9-4a.949.949 0 0 0 -.72-.03l-.32-1.93a7 7 0 0 0 3.63-6.13v-4.28a6.7 6.7 0 0 0 1.72-1.72h13.28a3.009 3.009 0 0 0 3 3v3a7 7 0 0 0 3.63 6.13l-.32 1.93a.949.949 0 0 0 -.72.03l-9 4a.987.987 0 0 0 -.59.91v6a1 1 0 0 0 1 1h26a1 1 0 0 0 1-1v-6a.987.987 0 0 0 -.59-.91zm-41.19-1.9 7.78 3.46v4.35h-24v-4.35l7.78-3.46 3.51 3.52a1.008 1.008 0 0 0 1.42 0zm-6.15-.53.47-2.82a6.741 6.741 0 0 0 2.92 0l.47 2.82-1.93 1.93zm6.93-9.66a5 5 0 0 1 -10 0v-5.38l3.12-1.56 6.88 1.72zm3-10a4.971 4.971 0 0 1 -1.28 3.32 1.072 1.072 0 0 0 -.48-.29l-8-2a.978.978 0 0 0 -.69.08l-4 2a.977.977 0 0 0 -.55.89v1a1 1 0 0 1 -1-1v-2a5 5 0 0 1 5-5h11zm0-6.32v-16.68a5 5 0 0 1 5-5h6a5 5 0 0 1 5 5v16.69l-3.59-1.6a.947.947 0 0 0 -.72-.03l-.32-1.93a7 7 0 0 0 3.63-6.13v-6a1 1 0 0 0 -.45-.83l-3-2a.991.991 0 0 0 -.77-.15l-9 2a1.015 1.015 0 0 0 -.78.98v6a7 7 0 0 0 3.63 6.13l-.32 1.93a.949.949 0 0 0 -.72.03zm8-4.68a5 5 0 0 1 -5-5v-5.2l7.8-1.73 2.2 1.47v5.46a5 5 0 0 1 -5 5zm1.93 4.66-1.93 1.93-1.93-1.93.47-2.82a6.741 6.741 0 0 0 2.92 0zm4.07 8.34h-12.3a7.016 7.016 0 0 0 .3-2v-4a1 1 0 0 0 -.45-.82l2.23-.99 3.51 3.52a1.014 1.014 0 0 0 1.42 0l3.51-3.52 4.73 2.11a7 7 0 0 0 -2.95 5.7zm3 2v1a1 1 0 0 1 -1-1v-2a5 5 0 0 1 5-5h11v3a4.971 4.971 0 0 1 -1.28 3.32 1.072 1.072 0 0 0 -.48-.29l-8-2a.972.972 0 0 0 -.69.08l-4 2a.977.977 0 0 0 -.55.89zm2 6v-5.38l3.12-1.56 6.88 1.72v5.22a5 5 0 0 1 -10 0zm6.93 9.66-1.93 1.93-1.93-1.93.47-2.82a6.741 6.741 0 0 0 2.92 0zm10.07 8.34h-24v-4.35l7.78-3.46 3.51 3.52a1.008 1.008 0 0 0 1.42 0l3.51-3.52 7.78 3.46z"/><path d="m31 38v5.586l-4.707 4.707 1.414 1.414 4.293-4.293 4.293 4.293 1.414-1.414-4.707-4.707v-5.586z"/></g></svg>